<svg width="114" height="60" viewBox="0 0 114 60" fill="none" xmlns="http://www.w3.org/2000/svg">
<g clip-path="url(#clip0_2078_375)">
<path d="M7.81278 7.94994C9.44924 7.94994 10.8394 8.31211 11.9831 9.03644C13.1445 9.76077 14.0243 10.7413 14.6226 11.9779C15.2208 13.2146 15.52 14.6102 15.52 16.1649C15.52 17.7195 15.2208 19.1152 14.6226 20.3519C14.0243 21.5885 13.1445 22.569 11.9831 23.2933C10.8394 24.0177 9.44924 24.3798 7.81278 24.3798C7.16171 24.3798 6.59863 24.265 6.12353 24.0353C5.66602 23.788 5.2965 23.5053 5.01496 23.1873C4.64544 23.8057 3.90639 24.1148 2.79782 24.1148H0V23.7173C0.281542 23.7173 0.52789 23.5407 0.739047 23.1873C0.950203 22.834 1.05578 22.4983 1.05578 22.1803V4.61097C1.05578 3.39198 0.703854 2.78248 0 2.78248V2.38498C0.739047 2.38498 1.48689 2.27898 2.24353 2.06699C3.00018 1.85499 3.62485 1.58999 4.11755 1.27199C4.62784 0.936326 4.88299 0.600662 4.88299 0.264998H5.2789V8.87744C6.01795 8.25911 6.86258 7.94994 7.81278 7.94994ZM7.54883 23.9823C8.86856 23.9823 9.81876 23.2138 10.3994 21.6768C10.9977 20.1399 11.2969 18.3025 11.2969 16.1649C11.2969 14.0272 10.9977 12.1899 10.3994 10.6529C9.81876 9.11594 8.86856 8.34744 7.54883 8.34744C6.59863 8.34744 5.84199 8.69194 5.2789 9.38093V22.1803C5.2789 22.41 5.25251 22.622 5.19972 22.8163C5.74521 23.5937 6.52825 23.9823 7.54883 23.9823Z" fill="black"/>
<path d="M27.4753 7.94994C28.3551 7.94994 29.1381 8.15311 29.8244 8.55944C30.5106 8.96577 30.8538 9.4781 30.8538 10.0964C30.8538 10.6264 30.6866 11.0416 30.3523 11.3419C30.0355 11.6246 29.6132 11.7659 29.0853 11.7659C28.6454 11.7659 28.2847 11.6423 28.0031 11.3949C27.7216 11.1299 27.4137 10.7501 27.0793 10.2554C26.7802 9.81376 26.5163 9.48693 26.2875 9.27493C26.0763 9.06294 25.8036 8.95694 25.4693 8.95694C24.7302 8.95694 23.8856 9.41627 22.9354 10.3349V22.1803C22.9354 22.4983 23.041 22.834 23.2521 23.1873C23.4633 23.5407 23.7096 23.7173 23.9912 23.7173V24.1148H17.6565V23.7173C17.938 23.7173 18.1844 23.5407 18.3955 23.1873C18.6067 22.834 18.7123 22.4983 18.7123 22.1803V11.4744C18.7123 10.2554 18.3603 9.64593 17.6565 9.64593V9.24844C18.3955 9.24844 19.1434 9.14244 19.9 8.93044C20.6567 8.71844 21.2813 8.45344 21.774 8.13544C22.2843 7.79978 22.5395 7.46411 22.5395 7.12845H22.9354V9.77843C23.5865 9.19544 24.2991 8.74494 25.0734 8.42694C25.8476 8.10894 26.6482 7.94994 27.4753 7.94994Z" fill="black"/>
<path d="M37.1895 6.62495C36.6968 6.62495 36.2657 6.43946 35.8961 6.06846C35.5266 5.69746 35.3419 5.26463 35.3419 4.76997C35.3419 4.25764 35.5266 3.82481 35.8961 3.47148C36.2657 3.10048 36.6968 2.91498 37.1895 2.91498C37.6998 2.91498 38.1309 3.10048 38.4828 3.47148C38.8523 3.82481 39.0371 4.25764 39.0371 4.76997C39.0371 5.26463 38.8523 5.69746 38.4828 6.06846C38.1309 6.43946 37.6998 6.62495 37.1895 6.62495ZM42.7323 6.62495C42.2396 6.62495 41.8085 6.43946 41.439 6.06846C41.0695 5.69746 40.8847 5.26463 40.8847 4.76997C40.8847 4.25764 41.0695 3.82481 41.439 3.47148C41.8085 3.10048 42.2396 2.91498 42.7323 2.91498C43.2426 2.91498 43.6737 3.10048 44.0257 3.47148C44.3952 3.82481 44.5799 4.25764 44.5799 4.76997C44.5799 5.26463 44.3952 5.69746 44.0257 6.06846C43.6737 6.43946 43.2426 6.62495 42.7323 6.62495ZM31.9106 16.1649C31.9106 14.6809 32.2625 13.3117 32.9663 12.0574C33.6878 10.7854 34.6644 9.78727 35.8961 9.06294C37.1279 8.32094 38.4828 7.94994 39.9609 7.94994C41.527 7.94994 42.9171 8.32094 44.1312 9.06294C45.363 9.78727 46.3132 10.7766 46.9818 12.0309C47.6681 13.2852 48.0112 14.6632 48.0112 16.1649C48.0112 17.6842 47.6681 19.071 46.9818 20.3254C46.3132 21.5797 45.363 22.569 44.1312 23.2933C42.9171 24.0177 41.527 24.3798 39.9609 24.3798C38.3948 24.3798 36.9959 24.0177 35.7642 23.2933C34.55 22.569 33.5998 21.5797 32.9136 20.3254C32.2449 19.071 31.9106 17.6842 31.9106 16.1649ZM36.1337 16.1649C36.1337 18.4792 36.4592 20.3607 37.1103 21.8093C37.7614 23.258 38.7116 23.9823 39.9609 23.9823C41.1926 23.9823 42.134 23.258 42.7851 21.8093C43.4538 20.343 43.7881 18.4615 43.7881 16.1649C43.7881 13.8682 43.4538 11.9956 42.7851 10.5469C42.134 9.0806 41.1926 8.34744 39.9609 8.34744C39.2043 8.34744 38.5356 8.69194 37.9549 9.38093C37.3742 10.0699 36.9255 11.0151 36.6088 12.2164C36.2921 13.4001 36.1337 14.7162 36.1337 16.1649Z" fill="black"/>
<path d="M54.8975 22.1803C54.8975 22.4983 55.0031 22.834 55.2142 23.1873C55.4254 23.5407 55.6718 23.7173 55.9533 23.7173V24.1148H49.6186V23.7173C49.9002 23.7173 50.1465 23.5407 50.3577 23.1873C50.5688 22.834 50.6744 22.4983 50.6744 22.1803V4.34597C50.6744 3.12698 50.3225 2.51748 49.6186 2.51748V2.11998C50.3577 2.11998 51.1055 2.01399 51.8621 1.80199C52.6188 1.58999 53.2435 1.32499 53.7362 1.00699C54.2464 0.671328 54.5016 0.335664 54.5016 0H54.8975V22.1803Z" fill="black"/>
<path d="M63.352 22.1803C63.352 22.4983 63.4576 22.834 63.6687 23.1873C63.8799 23.5407 64.1263 23.7173 64.4078 23.7173V24.1148H58.0731V23.7173C58.3546 23.7173 58.601 23.5407 58.8121 23.1873C59.0233 22.834 59.1289 22.4983 59.1289 22.1803V4.34597C59.1289 3.12698 58.777 2.51748 58.0731 2.51748V2.11998C58.8121 2.11998 59.56 2.01399 60.3166 1.80199C61.0733 1.58999 61.6979 1.32499 62.1906 1.00699C62.7009 0.671328 62.9561 0.335664 62.9561 0H63.352V22.1803Z" fill="black"/>
<path d="M66.2698 16.1649C66.2698 14.6809 66.6218 13.3117 67.3256 12.0574C68.0471 10.7854 69.0237 9.78727 70.2554 9.06294C71.4872 8.32094 72.8421 7.94994 74.3202 7.94994C75.8862 7.94994 77.2764 8.32094 78.4905 9.06294C79.7222 9.78727 80.6725 10.7766 81.3411 12.0309C82.0274 13.2852 82.3705 14.6632 82.3705 16.1649C82.3705 17.6842 82.0274 19.071 81.3411 20.3254C80.6725 21.5797 79.7222 22.569 78.4905 23.2933C77.2764 24.0177 75.8862 24.3798 74.3202 24.3798C72.7541 24.3798 71.3552 24.0177 70.1234 23.2933C68.9093 22.569 67.9591 21.5797 67.2728 20.3254C66.6042 19.071 66.2698 17.6842 66.2698 16.1649ZM70.493 16.1649C70.493 18.4792 70.8185 20.3607 71.4696 21.8093C72.1206 23.258 73.0708 23.9823 74.3202 23.9823C75.5519 23.9823 76.4933 23.258 77.1444 21.8093C77.813 20.343 78.1474 18.4615 78.1474 16.1649C78.1474 13.8682 77.813 11.9956 77.1444 10.5469C76.4933 9.0806 75.5519 8.34744 74.3202 8.34744C73.5635 8.34744 72.8949 8.69194 72.3142 9.38093C71.7335 10.0699 71.2848 11.0151 70.9681 12.2164C70.6513 13.4001 70.493 14.7162 70.493 16.1649Z" fill="black"/>
<path d="M91.7907 7.94994C93.4271 7.94994 94.8172 8.31211 95.961 9.03644C97.1224 9.76077 98.0022 10.7413 98.6005 11.9779C99.1987 13.2146 99.4979 14.6102 99.4979 16.1649C99.4979 17.7195 99.1987 19.1152 98.6005 20.3519C98.0022 21.5885 97.1224 22.569 95.961 23.2933C94.8172 24.0177 93.4271 24.3798 91.7907 24.3798C90.8405 24.3798 89.9958 24.0707 89.2568 23.4523V28.8053C89.2568 29.1233 89.3624 29.459 89.5735 29.8123C89.7847 30.1656 90.031 30.3423 90.3126 30.3423V30.7398H83.9779V30.3423C84.2594 30.3423 84.5058 30.1656 84.7169 29.8123C84.9281 29.459 85.0337 29.1233 85.0337 28.8053V11.4744C85.0337 10.2554 84.6817 9.64593 83.9779 9.64593V9.24844C84.7169 9.24844 85.4648 9.14244 86.2214 8.93044C86.9781 8.71844 87.6027 8.45344 88.0954 8.13544C88.6057 7.79978 88.8609 7.46411 88.8609 7.12845H89.2568V8.87744C89.9958 8.25911 90.8405 7.94994 91.7907 7.94994ZM91.5267 23.9823C92.8464 23.9823 93.7966 23.2138 94.3773 21.6768C94.9756 20.1399 95.2747 18.3025 95.2747 16.1649C95.2747 14.0272 94.9756 12.1899 94.3773 10.6529C93.7966 9.11594 92.8464 8.34744 91.5267 8.34744C90.5765 8.34744 89.8199 8.69194 89.2568 9.38093V22.9488C89.8199 23.6378 90.5765 23.9823 91.5267 23.9823Z" fill="black"/>
<path d="M104.392 10.3349C104.392 10.8119 104.568 11.2448 104.92 11.6334C105.272 12.0221 105.703 12.3577 106.214 12.6404C106.742 12.9231 107.463 13.2764 108.378 13.7004C109.592 14.2657 110.569 14.7692 111.308 15.2109C112.047 15.6349 112.68 16.1914 113.208 16.8804C113.736 17.5694 114 18.382 114 19.3184C114 20.3784 113.701 21.297 113.103 22.0743C112.504 22.834 111.721 23.4082 110.753 23.7968C109.786 24.1855 108.756 24.3798 107.665 24.3798C106.539 24.3798 105.466 24.1678 104.445 23.7438C103.442 23.3198 102.633 22.7898 102.017 22.1538C101.401 21.5178 101.093 20.9084 101.093 20.3254C101.093 19.972 101.207 19.6452 101.436 19.3449C101.683 19.0269 102.026 18.8679 102.466 18.8679C102.923 18.8679 103.293 19.0445 103.574 19.3979C103.856 19.7335 103.996 20.131 103.996 20.5904C103.996 21.721 104.34 22.569 105.026 23.1343C105.712 23.682 106.592 23.9647 107.665 23.9823C108.844 23.9823 109.715 23.7527 110.278 23.2933C110.841 22.8163 111.123 22.2333 111.123 21.5444C111.123 20.873 110.797 20.3077 110.146 19.8484C109.495 19.389 108.492 18.8502 107.137 18.2319C105.941 17.6842 104.964 17.1895 104.208 16.7479C103.469 16.2886 102.835 15.7232 102.307 15.0519C101.779 14.3629 101.515 13.5591 101.515 12.6404C101.515 11.7748 101.744 10.9886 102.202 10.2819C102.677 9.5576 103.328 8.99227 104.155 8.58594C104.982 8.16194 105.932 7.94994 107.005 7.94994C107.885 7.94994 108.756 8.11778 109.619 8.45344C110.498 8.77144 111.211 9.19544 111.756 9.72543C112.32 10.2554 112.601 10.7943 112.601 11.3419C112.601 11.6953 112.478 12.0309 112.232 12.3489C112.003 12.6492 111.668 12.7994 111.229 12.7994C110.771 12.7994 110.402 12.6316 110.12 12.2959C109.838 11.9426 109.698 11.5363 109.698 11.0769C109.698 10.2819 109.46 9.62827 108.985 9.11594C108.51 8.60361 107.85 8.34744 107.005 8.34744C106.178 8.34744 105.536 8.54177 105.079 8.93044C104.621 9.3191 104.392 9.78726 104.392 10.3349Z" fill="black"/>
<path d="M12.9945 48.8171C12.9945 49.3824 13.364 49.7976 14.103 50.0626C14.8597 50.3099 16.0386 50.5572 17.6399 50.8046C19.2764 51.0519 20.6225 51.3257 21.6783 51.6261C22.734 51.9087 23.6402 52.3681 24.3969 53.0041C25.1711 53.64 25.5582 54.5145 25.5582 55.6275C25.5582 56.6169 25.1975 57.4384 24.4761 58.092C23.7722 58.7633 22.8748 59.2492 21.7838 59.5495C20.7105 59.8498 19.6019 60 18.4581 60C16.6633 60 15.0004 59.7615 13.4696 59.2845C11.9563 58.8252 11.1996 57.9507 11.1996 56.661C11.1996 55.4597 12.2114 54.5764 14.235 54.011C12.5282 53.2337 11.6747 51.9794 11.6747 50.2481C11.6747 49.5237 11.8595 48.9054 12.229 48.3931C12.6161 47.8807 13.0912 47.4568 13.6543 47.1211C12.4226 46.0258 11.8067 44.6389 11.8067 42.9606C11.8067 41.777 12.1058 40.7523 12.7041 39.8866C13.3024 39.0033 14.0854 38.3408 15.0532 37.8992C16.0386 37.4398 17.0768 37.2102 18.1678 37.2102C18.5021 37.2102 18.8452 37.2367 19.1972 37.2897C19.6195 36.3003 20.1826 35.4965 20.8864 34.8782C21.6079 34.2598 22.4613 33.9507 23.4467 33.9507C24.0626 33.9507 24.5992 34.1185 25.0568 34.4542C25.5319 34.7722 25.7694 35.1962 25.7694 35.7262C25.7694 36.2032 25.567 36.5742 25.1623 36.8392C24.7576 37.0865 24.2649 37.2102 23.6842 37.2102C23.2795 37.2102 22.7604 37.0865 22.127 36.8392C21.6167 36.6448 21.2207 36.5477 20.9392 36.5477C20.6929 36.5477 20.4729 36.6007 20.2793 36.7067C19.9978 36.848 19.7691 37.06 19.5931 37.3427C21.0184 37.6077 22.2061 38.2348 23.1563 39.2241C24.1066 40.2135 24.5817 41.459 24.5817 42.9606C24.5817 44.1619 24.2737 45.1954 23.6578 46.0611C23.0596 46.9268 22.2677 47.5893 21.2823 48.0486C20.3145 48.5079 19.2764 48.7376 18.1678 48.7376C17.3935 48.7376 16.6457 48.6227 15.9242 48.3931C15.2028 48.1634 14.5429 47.8278 13.9447 47.3861C13.3112 47.7394 12.9945 48.2164 12.9945 48.8171ZM18.1678 37.6077C17.4639 37.6077 16.9272 38.1023 16.5577 39.0916C16.2058 40.0633 16.0298 41.353 16.0298 42.9606C16.0298 44.5859 16.2058 45.8933 16.5577 46.8826C16.9272 47.8542 17.4639 48.3401 18.1678 48.3401C18.8892 48.3401 19.4347 47.8542 19.8042 46.8826C20.1738 45.8933 20.3585 44.5859 20.3585 42.9606C20.3585 41.353 20.1738 40.0633 19.8042 39.0916C19.4347 38.1023 18.8892 37.6077 18.1678 37.6077ZM18.4581 59.6025C19.6019 59.6025 20.6841 59.4258 21.7047 59.0725C22.7252 58.7192 23.2355 58.1715 23.2355 57.4295C23.2355 56.9525 23.042 56.5639 22.6549 56.2635C22.2677 55.9809 21.775 55.7689 21.1768 55.6275C20.5961 55.4862 19.7778 55.3272 18.7221 55.1505C17.1384 54.9032 15.9506 54.647 15.1588 54.382C14.4374 54.965 14.0766 55.7247 14.0766 56.661C14.0766 57.6327 14.4725 58.3658 15.2644 58.8605C16.0562 59.3552 17.1208 59.6025 18.4581 59.6025Z" fill="black"/>
<path d="M42.0495 51.4406C42.0495 51.7586 42.155 52.0942 42.3662 52.4476C42.5774 52.8009 42.8237 52.9775 43.1052 52.9775V53.375H41.7855H37.8263V51.2021C37.2457 51.9971 36.5066 52.6066 35.6092 53.0305C34.7294 53.4369 33.7352 53.64 32.6266 53.64C31.2365 53.64 30.0927 53.322 29.1953 52.6861C28.3155 52.0324 27.8756 50.9901 27.8756 49.5591V40.7346C27.8756 39.5156 27.5237 38.9061 26.8198 38.9061V38.5086C27.5589 38.5086 28.3067 38.4026 29.0634 38.1907C29.82 37.9787 30.4447 37.7137 30.9374 37.3957C31.4477 37.06 31.7028 36.7243 31.7028 36.3887H32.0987V49.7976C32.0987 50.7692 32.3011 51.5024 32.7058 51.9971C33.1105 52.4741 33.7 52.7126 34.4742 52.7126C35.706 52.7126 36.8234 51.9971 37.8263 50.5661V40.7346C37.8263 39.5156 37.4744 38.9061 36.7706 38.9061V38.5086C37.5096 38.5086 38.2575 38.4026 39.0141 38.1907C39.7707 37.9787 40.3954 37.7137 40.8881 37.3957C41.3984 37.06 41.6535 36.7243 41.6535 36.3887H42.0495V51.4406Z" fill="black"/>
<path d="M47.8897 35.6202C47.2386 35.6202 46.6755 35.3905 46.2004 34.9312C45.7429 34.4542 45.5142 33.8888 45.5142 33.2352C45.5142 32.5639 45.7429 31.9985 46.2004 31.5392C46.6755 31.0799 47.2386 30.8502 47.8897 30.8502C48.5583 30.8502 49.1214 31.0799 49.5789 31.5392C50.0364 31.9985 50.2652 32.5639 50.2652 33.2352C50.2652 33.8888 50.0364 34.4542 49.5789 34.9312C49.1214 35.3905 48.5583 35.6202 47.8897 35.6202ZM50.5027 51.4406C50.5027 51.7586 50.6083 52.0942 50.8195 52.4476C51.0306 52.8009 51.277 52.9775 51.5585 52.9775V53.375H45.2238V52.9775C45.5054 52.9775 45.7517 52.8009 45.9629 52.4476C46.174 52.0942 46.2796 51.7586 46.2796 51.4406V40.7346C46.2796 39.5156 45.9277 38.9061 45.2238 38.9061V38.5086C45.9629 38.5086 46.7107 38.4026 47.4674 38.1907C48.224 37.9787 48.8487 37.7137 49.3414 37.3957C49.8517 37.06 50.1068 36.7243 50.1068 36.3887H50.5027V51.4406Z" fill="black"/>
<path d="M67.8848 51.4406C67.8848 51.7586 67.9903 52.0942 68.2015 52.4476C68.4126 52.8009 68.659 52.9775 68.9405 52.9775V53.375H66.1427C65.0341 53.375 64.2951 53.0659 63.9256 52.4476C63.644 52.7655 63.2657 53.0482 62.7906 53.2955C62.3331 53.5252 61.7788 53.64 61.1278 53.64C59.4913 53.64 58.0924 53.2779 56.931 52.5536C55.7873 51.8292 54.9162 50.8487 54.318 49.6121C53.7197 48.3754 53.4206 46.9798 53.4206 45.4251C53.4206 43.8704 53.7197 42.4748 54.318 41.2381C54.9162 40.0015 55.7873 39.021 56.931 38.2967C58.0924 37.5723 59.4913 37.2102 61.1278 37.2102C62.078 37.2102 62.9226 37.5193 63.6616 38.1376V33.8712C63.6616 32.6522 63.3097 32.0427 62.6058 32.0427V31.6452C63.3449 31.6452 64.0927 31.5392 64.8494 31.3272C65.606 31.1152 66.2307 30.8502 66.7234 30.5322C67.2337 30.1965 67.4888 29.8609 67.4888 29.5252H67.8848V33.8712V51.4406ZM61.3917 53.2425C62.4123 53.2425 63.1953 52.8539 63.7408 52.0766C63.688 51.8822 63.6616 51.6702 63.6616 51.4406V38.6411C63.0985 37.9522 62.3419 37.6077 61.3917 37.6077C60.072 37.6077 59.113 38.3761 58.5147 39.9131C57.934 41.4501 57.6437 43.2874 57.6437 45.4251C57.6437 47.5628 57.934 49.4001 58.5147 50.9371C59.113 52.4741 60.072 53.2425 61.3917 53.2425Z" fill="black"/>
<path d="M84.941 45.6106H75.043C75.0606 47.1476 75.2366 48.4902 75.5709 49.6386C75.9053 50.7869 76.3716 51.6791 76.9698 52.3151C77.5857 52.9334 78.2896 53.2425 79.0814 53.2425C80.1724 53.2425 81.1666 52.9422 82.064 52.3416C82.9614 51.7409 83.6388 50.8841 84.0964 49.7711L84.4659 49.9036C84.0436 51.0519 83.3397 51.9617 82.3543 52.633C81.3689 53.3044 80.2164 53.64 78.8966 53.64C77.4009 53.64 76.0372 53.3309 74.8055 52.7126C73.5913 52.0766 72.6147 51.1402 71.8757 49.9036C71.1542 48.6669 70.7935 47.1741 70.7935 45.4251C70.7935 43.6938 71.1278 42.2098 71.7965 40.9731C72.4828 39.7365 73.3626 38.8001 74.436 38.1642C75.5269 37.5282 76.6707 37.2102 77.8672 37.2102C79.1518 37.2102 80.3307 37.5105 81.4041 38.1111C82.4775 38.7118 83.3309 39.6216 83.9644 40.8406C84.6154 42.042 84.941 43.5171 84.941 45.2661V45.6106ZM80.7178 45.2661C80.7178 42.5455 80.4979 40.5933 80.058 39.4096C79.6181 38.2083 78.8878 37.6077 77.8672 37.6077C76.8818 37.6077 76.1692 38.2702 75.7293 39.5951C75.2894 40.9025 75.0606 42.7928 75.043 45.2661H80.7178Z" fill="black"/>
<path d="M101.766 51.4406C101.766 51.7586 101.872 52.0942 102.083 52.4476C102.294 52.8009 102.54 52.9775 102.822 52.9775V53.375H96.4871V52.9775C96.7687 52.9775 97.015 52.8009 97.2262 52.4476C97.4373 52.0942 97.5429 51.7586 97.5429 51.4406V41.0526C97.5429 40.081 97.3406 39.3566 96.9358 38.8796C96.5311 38.385 95.9417 38.1376 95.1674 38.1376C94.0412 38.1376 93.0119 38.7295 92.0793 39.9131V51.4406C92.0793 51.7586 92.1848 52.0942 92.396 52.4476C92.6071 52.8009 92.8535 52.9775 93.135 52.9775V53.375H86.8003V52.9775C87.0819 52.9775 87.3282 52.8009 87.5394 52.4476C87.7505 52.0942 87.8561 51.7586 87.8561 51.4406V40.7346C87.8561 39.5156 87.5042 38.9061 86.8003 38.9061V38.5086C87.5394 38.5086 88.2872 38.4026 89.0439 38.1907C89.8005 37.9787 90.4252 37.7137 90.9179 37.3957C91.4282 37.06 91.6833 36.7243 91.6833 36.3887H92.0793V39.3036C92.6775 38.6146 93.3902 38.0935 94.2172 37.7402C95.0618 37.3868 95.9944 37.2102 97.015 37.2102C98.4051 37.2102 99.5401 37.537 100.42 38.1907C101.317 38.8266 101.766 39.8601 101.766 41.2911V51.4406Z" fill="black"/>
</g>
<defs>
<clipPath id="clip0_2078_375">
<rect width="114" height="60" fill="white"/>
</clipPath>
</defs>
</svg>
